HIERARCHY
ROOT Hips
{
  OFFSET 0 0 0
  CHANNELS 6 Xposition Yposition Zposition Zrotation Yrotation Xrotation
  JOINT LeftThigh
  {
    OFFSET 8.409438 0 -5.917753
    CHANNELS 3 Zrotation Yrotation Xrotation
    JOINT LeftLeg
    {
      OFFSET 0 0 -42.358652
      CHANNELS 3 Zrotation Yrotation Xrotation
      JOINT LeftFoot
      {
        OFFSET 0 0 -39.357303
        CHANNELS 3 Zrotation Yrotation Xrotation
      }
    }
  }
  JOINT RightThigh
  {
    OFFSET -8.409438 0 -5.917753
    CHANNELS 3 Zrotation Yrotation Xrotation
    JOINT RightLeg
    {
      OFFSET 0 0 -42.358652
      CHANNELS 3 Zrotation Yrotation Xrotation
      JOINT RightFoot
      {
        OFFSET 0 0 -39.357303
        CHANNELS 3 Zrotation Yrotation Xrotation
      }
    }
  }
  JOINT SpineLow
  {
    OFFSET 0 0 4.719101
    CHANNELS 3 Zrotation Yrotation Xrotation
    JOINT SpineMid
    {
      OFFSET 0 0 12.899191
      CHANNELS 3 Zrotation Yrotation Xrotation
      JOINT Chest
      {
        OFFSET 0 0 12.899191
        CHANNELS 3 Zrotation Yrotation Xrotation
        JOINT LeftShoulder
        {
          OFFSET 7.550562 1.41573 9.438202
          CHANNELS 3 Zrotation Yrotation Xrotation
          JOINT LeftArm
          {
            OFFSET 9.155056 0 4.247191
            CHANNELS 3 Zrotation Yrotation Xrotation
            JOINT LeftForearm
            {
              OFFSET 0 0 25.771955
              CHANNELS 3 Zrotation Yrotation Xrotation
              JOINT LeftHand
              {
                OFFSET 0 0 25.197169
                CHANNELS 3 Zrotation Yrotation Xrotation
              }
            }
          }
        }
        JOINT RightShoulder
        {
          OFFSET -7.550562 1.41573 9.438202
          CHANNELS 3 Zrotation Yrotation Xrotation
          JOINT RightArm
          {
            OFFSET -9.155056 0 4.247191
            CHANNELS 3 Zrotation Yrotation Xrotation
            JOINT RightForearm
            {
              OFFSET 0 0 -25.771955
              CHANNELS 3 Zrotation Yrotation Xrotation
              JOINT RightHand
              {
                OFFSET 0 0 -25.197169
                CHANNELS 3 Zrotation Yrotation Xrotation
              }
            }
          }
        }
        JOINT Neck
        {
          OFFSET 0 0 15.101124
          CHANNELS 3 Zrotation Yrotation Xrotation
          JOINT Head
          {
            OFFSET 0 0 11.325843
            CHANNELS 3 Zrotation Yrotation Xrotation
            End Site
            {
              OFFSET 0 0 14.157303
            }
          }
        }
      }
    }
  }
}
MOTION
Frames: 11
Frame Time: 0.0
0.0  93.25843  0.0  -6.008786  11.801088  -120.573296  -2.704722  -7.663014  19.328934  -14.294524  1.459787  10.759652  -2.987608  0.463897  1.378151  12.37208  -24.868238  -95.585276  25.605926  27.410567  110.155412  11.758555  7.548891  3.369617  -2.123472  -1.732015  0.612066  -5.856795  -4.675918  1.826561  -5.856795  -4.675918  1.826561  -13.789749  33.634789  21.130706  170.877125  43.718109  -136.480653  -33.229247  11.381663  59.01435  86.968218  -2.410787  -15.019296  -6.128533  -3.749723  28.923943  74.774949  52.375068  26.114197  -27.886748  15.61848  -75.647712  79.085423  5.946712  -41.734952  -25.136232  17.480635  14.113609  -19.128612  12.567543  11.263156  
0.0  93.25843  0.0  -5.946507  12.100556  -120.992955  -3.015898  -7.700811  19.779209  -14.297725  1.870249  10.971975  -3.120036  0.540286  1.411762  13.473948  -27.741929  -94.315513  28.869241  27.094051  110.100713  11.438409  6.513113  3.014706  -2.092441  -1.727535  0.685674  -5.776835  -4.658126  2.025303  -5.776834  -4.658126  2.025303  -13.665983  33.766516  21.303227  172.173418  41.984974  -137.524647  -32.26095  11.219076  55.257631  90.423194  -2.743462  -14.872995  -7.065859  -3.92268  29.209945  68.538897  49.238041  21.587149  -26.997666  15.91914  -76.999792  81.914877  4.245231  -38.534526  -25.481314  17.373718  13.597558  -19.368761  12.500674  10.88542  
0.0  93.25843  0.0  -5.717465  12.49403  -121.112926  -3.1549  -7.564515  19.77864  -14.563013  2.294767  11.307214  -3.173535  0.615473  1.482471  14.205625  -24.123947  -91.452406  24.362524  27.753708  108.990416  11.048858  6.78161  2.369384  -2.244723  -1.714163  0.828905  -6.202998  -4.603176  2.426335  -6.202998  -4.603176  2.426335  -12.542242  33.55763  21.077275  175.678295  40.291358  -136.861917  -25.241233  11.607913  53.730026  91.173077  -1.314991  -15.032319  -6.460542  -3.698401  29.124197  59.010754  48.904566  15.845202  -24.255389  12.786126  -79.621226  85.331335  -1.725293  -39.032574  -25.162561  17.245622  12.714231  -19.103606  12.446008  10.212346  
0.0  93.25843  0.0  -5.515933  12.991287  -120.857282  -3.123381  -7.37406  19.237338  -15.138072  2.643133  11.68052  -3.118033  0.557374  1.551676  13.624395  -22.935046  -90.44726  23.702511  27.168141  109.234162  11.485899  6.706679  2.385285  -2.517841  -1.69865  1.008642  -6.961915  -4.531249  2.934783  -6.961916  -4.531249  2.934783  -11.545571  33.438314  19.737814  176.064808  39.116881  -137.350949  -19.552515  8.1538  51.547782  88.838729  -0.564497  -14.971513  -5.177227  -3.370526  27.832081  49.370763  47.706522  10.931008  -20.394703  11.944649  -82.877162  86.63473  -5.558239  -39.301654  -24.45541  16.976873  11.760549  -18.547035  12.294196  9.470091  
0.0  93.25843  0.0  -5.392478  13.492189  -120.272722  -3.029506  -7.226652  18.33619  -15.5368  2.851002  12.053572  -3.166261  0.451602  1.584132  13.226169  -22.653989  -89.706006  24.168113  27.03342  109.86729  12.10381  6.508247  2.497333  -2.767449  -1.681626  1.108341  -7.650638  -4.461588  3.222009  -7.650638  -4.461588  3.222009  -11.274011  33.371321  18.147553  175.287316  38.492167  -138.422336  -16.845102  5.364989  48.501677  87.820178  -0.350405  -16.002114  -4.589817  -2.713088  26.823026  44.288381  45.338859  8.440303  -18.633254  13.083875  -84.761875  87.855379  -5.534683  -38.078627  -23.85607  16.757352  11.104827  -18.080421  12.164361  8.955468  
0.0  93.25843  0.0  -5.336907  13.878648  -119.634817  -3.154276  -7.050924  17.448554  -15.378891  2.904345  12.386431  -3.345069  0.323648  1.556178  12.853073  -22.526033  -88.157266  24.085045  26.989321  110.187726  12.124487  6.337651  2.383688  -2.909322  -1.588715  1.096489  -8.032593  -4.202366  3.187273  -8.032593  -4.202366  3.187273  -11.263849  32.874971  17.369185  175.405986  38.257932  -139.137753  -15.270763  4.990332  46.039608  87.195811  0.151683  -16.428459  -5.246946  -2.490866  26.547328  43.384498  43.668698  7.860686  -18.389053  14.849584  -85.116675  87.136662  -4.925457  -38.098415  -23.411984  16.472115  11.144667  -17.749671  11.955621  8.962344  
0.0  93.25843  0.0  -5.39889  14.03938  -118.978645  -3.417616  -6.969904  16.641891  -14.832419  2.846766  12.601561  -3.56396  0.211129  1.512529  12.365498  -22.735954  -85.742179  23.608131  26.934568  109.984947  11.32382  6.470091  2.288217  -2.855294  -1.458227  1.047371  -7.874455  -3.854976  3.03364  -7.874455  -3.854976  3.03364  -12.088198  32.06612  16.912062  175.169849  38.471946  -140.31486  -14.612028  4.889427  43.613656  86.698031  0.233605  -15.891719  -6.882827  -3.015164  26.000248  44.568414  42.641969  8.94319  -18.527559  14.743843  -84.759411  85.891968  -4.778011  -38.796473  -23.499728  15.957762  11.522428  -17.823316  11.553235  9.229226  
0.0  93.25843  0.0  -5.493075  14.143222  -118.156934  -3.896052  -6.98868  15.709321  -14.169629  2.878209  12.679744  -3.672194  0.166216  1.494172  11.480335  -23.370563  -82.430294  23.005789  26.927312  109.013679  10.433098  6.747422  2.20764  -2.714521  -1.324482  0.954002  -7.477328  -3.507352  2.754933  -7.477328  -3.507352  2.754933  -13.302263  31.105461  16.600891  173.792503  38.861591  -141.882154  -14.60315  4.080167  41.457125  86.26769  0.576821  -15.084316  -8.221548  -3.687585  25.898484  46.160624  42.241141  10.404818  -18.930389  12.24015  -84.570962  86.494055  -5.608043  -39.035607  -23.886203  15.343923  11.935582  -18.119222  11.069226  9.527336  
0.0  93.25843  0.0  -5.238197  14.108439  -117.161819  -4.144159  -6.920385  14.715061  -13.585655  2.991548  12.648261  -3.741501  0.220318  1.456508  10.559031  -23.70766  -78.961283  22.383313  26.752092  108.142495  9.824552  6.832636  2.076243  -2.555357  -1.183505  0.854765  -7.030558  -3.140056  2.460158  -7.030558  -3.140056  2.460158  -14.279504  30.188807  16.598128  171.937652  39.547479  -143.162164  -14.339532  2.92183  39.766223  85.486859  1.276511  -14.620808  -9.041497  -4.076682  25.918205  48.926598  42.278336  12.477833  -20.463572  10.045492  -84.312995  87.691373  -6.086188  -38.555012  -24.24926  14.747536  12.110901  -18.390728  10.607388  9.647218  
0.0  93.25843  0.0  -4.781997  13.772466  -116.108431  -4.063029  -6.748965  13.659919  -13.105117  3.221781  12.584967  -3.628044  0.222198  1.47304  9.971475  -23.955076  -75.330922  21.773034  26.541222  107.24453  9.176498  6.845828  1.960133  -2.42389  -1.074383  0.775787  -6.662991  -2.855229  2.227028  -6.662991  -2.855229  2.227028  -14.671165  29.473104  16.634341  170.594563  40.34982  -144.026537  -13.499059  2.010657  38.591994  84.43142  1.894765  -14.285223  -9.267649  -4.312429  25.809692  51.927339  42.482097  14.746702  -22.524925  10.180139  -83.778667  87.892645  -5.314947  -37.78376  -24.38565  14.207325  12.00027  -18.485902  10.202897  9.548968  
0.0  93.25843  0.0  -4.250005  13.314804  -114.910572  -3.235197  -7.124236  12.609546  -12.469998  3.569666  12.660718  -4.527986  0.319491  1.012903  9.362467  -24.191279  -71.477397  21.137179  26.208164  106.095363  8.274261  6.947049  1.829446  -2.337829  -0.985838  0.713473  -6.421794  -2.622562  2.044378  -6.421794  -2.622562  2.044379  -14.635036  28.896211  16.597886  169.920751  41.017186  -144.532874  -12.521253  1.29589  38.007994  83.951257  2.519055  -13.896342  -9.188942  -4.398641  25.421322  53.706189  42.506521  15.934922  -23.712369  11.83035  -83.266049  88.178294  -3.818874  -36.911134  -24.311353  13.619954  11.640524  -18.417475  9.776478  9.257264  
